<svg version="1.1" id="LogoExpanded" xmlns="http://www.w3.org/2000/svg" xmlns:xlink="http://www.w3.org/1999/xlink" x="0" y="0" viewBox="0 0 304 73.5" xml:space="preserve"><style type="text/css">.st0{enable-background:new}.st1{fill:#18346f}.st2{clip-path:url(#SVGID_2_)}.st3{fill:#2d73b6}.st4{fill:#fff}.st5{fill:#1e3f81}.st6{clip-path:url(#SVGID_4_)}.st7{fill:#10295f}.st8{clip-path:url(#SVGID_6_)}</style><path d="M111.1 11.6l4.5 21.1h-2.8l-.8-4.1h-4.2l-.8 4.1h-2.7l4.6-21.1h2.2zm0 11.8l-1.1-7.7h-.1l-1.7 10.7h3.4l-.5-3zM119.7 18.6v8.8c0 1.3-.2 3.1 1.6 3.1s1.6-1.7 1.6-3v-9h2.6V28c0 2.9-.9 4.8-4.1 4.8-3.8 0-4.4-2.2-4.4-5.4v-9h2.7zM133.2 21.5c-.5-.4-1.3-.8-2-.8-1 0-1.8.6-1.8 1.5.1 2.4 4.4 2.5 4.4 6.5 0 2.5-1.5 4.2-4.1 4.2-.9 0-1.5-.2-2.3-.7v-2.6c.7.5 1.3.9 2.2.9 1.1 0 1.8-.7 1.8-1.8 0-2.5-4.4-2.7-4.4-6.6 0-2.2 1.5-3.9 3.8-3.9.9 0 1.6.2 2.4.6v2.7zM138.8 14.6v4h1.4v2.1h-1.4v12.1h-2.6V20.7h-1.4v-2.1h1.4v-4h2.6zM144.5 20.3c.7-1.2 1.6-2 3.1-2V21h-.4c-2 0-2.6 1.1-2.6 2.9v8.9h-2.7V18.6h2.6v1.7zM154.9 30.9c-.6 1.2-1.1 2-2.7 2-3.3 0-3.3-5.2-3.3-7.5 0-2.4.1-7.1 3.4-7.1 1.2 0 2 .8 2.5 1.8h.1v-1.6h2.6v14.1h-2.6v-1.7zm.1-5.2c0-1.1.1-4.9-1.7-4.9-2 0-1.7 3.8-1.7 4.9 0 1.2-.2 5 1.7 5 1.8-.1 1.7-3.9 1.7-5zM162.6 32.7H160V9.5h2.6v23.2zM164.6 14.3c0-1 .8-1.7 1.8-1.7.9 0 1.7.8 1.7 1.7 0 1-.8 1.8-1.7 1.8-1 0-1.8-.8-1.8-1.8zm3.1 18.4H165V18.6h2.6v14.1zM175.7 30.9c-.6 1.2-1.1 2-2.7 2-3.3 0-3.3-5.2-3.3-7.5 0-2.4.1-7.1 3.4-7.1 1.2 0 2 .8 2.5 1.8h.1v-1.6h2.6v14.1h-2.6v-1.7zm0-5.2c0-1.1.1-4.9-1.7-4.9-2 0-1.7 3.8-1.7 4.9 0 1.2-.2 5 1.7 5 1.9-.1 1.7-3.9 1.7-5zM183.4 20.2c.6-1.1 1.5-1.8 2.9-1.8 2.8 0 2.9 2.5 2.9 4.6v9.7h-2.6V23c0-1-.2-2.2-1.6-2.2-1.7 0-1.6 2-1.6 3.2v8.8h-2.6V18.6h2.6v1.6zM200.9 11.6l3 15.2h.1V26l.8-5.1 1.8-9.3h2.5l2 21.1h-2.7l-.5-7.9-.2-3.9-.1-2.8h-.1l-.5 3-2.2 11.5H203L200.3 18h-.1l-.8 14.6h-2.7l1.7-21.1h2.5zM212.6 14.3c0-1 .8-1.7 1.8-1.7.9 0 1.7.8 1.7 1.7 0 1-.8 1.8-1.7 1.8-1 0-1.8-.8-1.8-1.8zm3 18.4H213V18.6h2.6v14.1zM224 21.5c-.3-.4-.7-.6-1.3-.7-2.3 0-2.3 3.2-2.3 4.7 0 1.4.1 5 2.3 5 .6 0 .9-.2 1.3-.5v2.4c-.7.4-1.3.6-2.1.6-3.7 0-4.2-4.4-4.2-7.2 0-2.9.3-7.4 4.2-7.4.8 0 1.4.1 2.1.5v2.6zM228.5 20.3c.7-1.2 1.6-2 3.1-2V21h-.4c-2 0-2.6 1.1-2.6 2.9v8.9h-2.7V18.6h2.6v1.7zM233 25.7c0-3.1.4-7.3 4.5-7.3 4 0 4.5 4.3 4.5 7.3s-.4 7.3-4.5 7.3-4.5-4.3-4.5-7.3zm6.2 0c0-1.1.3-4.9-1.8-4.9-2 0-1.8 3.8-1.8 4.9 0 1-.3 4.8 1.8 4.8 2 .1 1.8-3.8 1.8-4.8zM249.2 21.5c-.5-.4-1.3-.8-2-.8-1 0-1.8.6-1.8 1.5.1 2.4 4.4 2.5 4.4 6.5 0 2.5-1.5 4.2-4.1 4.2-.9 0-1.5-.2-2.3-.7v-2.6c.7.5 1.3.9 2.2.9 1.1 0 1.8-.7 1.8-1.8 0-2.5-4.4-2.7-4.4-6.6 0-2.2 1.5-3.9 3.8-3.9.9 0 1.6.2 2.4.6v2.7zM257.5 21.5c-.3-.4-.7-.6-1.3-.7-2.3 0-2.3 3.2-2.3 4.7 0 1.4.1 5 2.3 5 .6 0 .9-.2 1.3-.5v2.4c-.7.4-1.3.6-2.1.6-3.7 0-4.2-4.4-4.2-7.2 0-2.9.3-7.4 4.2-7.4.8 0 1.4.1 2.1.5v2.6zM259 25.7c0-3.1.4-7.3 4.5-7.3 4 0 4.5 4.3 4.5 7.3s-.4 7.3-4.5 7.3-4.5-4.3-4.5-7.3zm6.2 0c0-1.1.3-4.9-1.8-4.9-2 0-1.8 3.8-1.8 4.9 0 1-.3 4.8 1.8 4.8 2.1.1 1.8-3.8 1.8-4.8zM272.5 20.4c.6-1.2 1.2-2 2.7-2 3.3 0 3.3 5.2 3.3 7.4 0 2.4-.1 7.1-3.4 7.1-1.4 0-2-.7-2.5-1.8h-.1v7.4h-2.6V18.6h2.6v1.8zm3.3 5.3c0-1.1.2-5-1.7-5-1.8 0-1.7 3.8-1.7 5 0 1.1-.1 4.9 1.7 4.9 1.6 0 1.7-2.6 1.7-4.9zM282.4 18.6l2.1 9.9h.1l2.4-9.9h2.7l-5.8 19.9H281l2.2-6.9-3.8-13h3zM113.3 59.1c-.9 1.2-2.2 1.9-3.6 1.9-2.7 0-4.7-2.5-4.7-5.3 0-2.3 1.4-4.1 2.9-5.7-.9-1.4-1.7-3.2-1.7-5 0-2.3 1.7-4 4-4 2.4 0 4 1.4 4 3.8 0 2.3-1.6 4.1-3.1 5.6l2.8 4.6 1.7-2.5 1.8 1.5-2.2 3.1 2.2 3.5h-3.1l-1-1.5zm-4.1-6.8c-1 1-1.6 1.9-1.6 3.4s.9 3 2.4 3c1 0 1.6-.6 2.1-1.5l-2.9-4.9zm2.7-7.4c0-1-.5-1.7-1.5-1.7s-1.7 1-1.7 1.8c0 1.2.7 2.3 1.2 3.3 1-.9 2-1.9 2-3.4zM128.6 39.6l3 15.2h.1l.1-.9.8-5.1 1.8-9.3h2.5l2 21.1h-2.7l-.5-7.9-.2-3.9-.1-2.8h-.1l-.5 3-2.2 11.5h-1.9L128 46.2h-.1l-.8 14.6h-2.7l1.7-21.1h2.5zM140.3 42.3c0-1 .8-1.7 1.8-1.7.9 0 1.7.8 1.7 1.7 0 1-.8 1.8-1.7 1.8-1 0-1.8-.8-1.8-1.8zm3 18.4h-2.6V46.6h2.6v14.1zM151.6 49.5c-.3-.4-.7-.6-1.3-.7-2.3 0-2.3 3.2-2.3 4.7 0 1.4.1 5 2.3 5 .6 0 .9-.2 1.3-.5v2.4c-.7.4-1.3.6-2.1.6-3.7 0-4.2-4.4-4.2-7.2 0-2.9.3-7.4 4.2-7.4.8 0 1.4.1 2.1.5v2.6zM156.2 48.3c.7-1.2 1.6-2 3.1-2V49h-.4c-2 0-2.6 1.1-2.6 2.9v8.9h-2.7V46.6h2.6v1.7zM160.7 53.7c0-3.1.4-7.3 4.5-7.3 4 0 4.5 4.3 4.5 7.3s-.4 7.3-4.5 7.3-4.5-4.3-4.5-7.3zm6.2 0c0-1.1.3-4.9-1.8-4.9-2 0-1.8 3.8-1.8 4.9 0 1-.3 4.8 1.8 4.8 2 .1 1.8-3.8 1.8-4.8zM177.1 58.9c-.6 1.2-1.1 2-2.7 2-3.3 0-3.3-5.2-3.3-7.5 0-2.4.1-7.1 3.4-7.1 1.2 0 2 .8 2.5 1.8h.1v-1.6h2.6v14.1h-2.6v-1.7zm.1-5.2c0-1.1.1-4.9-1.7-4.9-2 0-1.7 3.8-1.7 4.9 0 1.2-.2 5 1.7 5 1.8-.1 1.7-3.9 1.7-5zM184.8 48.2c.6-1.1 1.5-1.8 2.9-1.8 2.8 0 2.9 2.5 2.9 4.6v9.7H188V51c0-1-.2-2.2-1.6-2.2-1.7 0-1.6 2-1.6 3.2v8.8h-2.6V46.6h2.6v1.6zM198.6 58.9c-.6 1.2-1.1 2-2.7 2-3.3 0-3.3-5.2-3.3-7.5 0-2.4.1-7.1 3.4-7.1 1.2 0 2 .8 2.5 1.8h.1v-1.6h2.6v14.1h-2.6v-1.7zm.1-5.2c0-1.1.1-4.9-1.7-4.9-2 0-1.7 3.8-1.7 4.9 0 1.2-.2 5 1.7 5 1.8-.1 1.7-3.9 1.7-5zM206.3 60.7h-2.6V37.5h2.6v23.2zM210.6 46.6l2.1 9.9h.1l2.4-9.9h2.7L212 66.5h-2.8l2.2-6.9-3.8-13h3zM224.5 49.5c-.5-.4-1.3-.8-2-.8-1 0-1.8.6-1.8 1.5.1 2.4 4.4 2.5 4.4 6.5 0 2.5-1.5 4.2-4.1 4.2-.9 0-1.5-.2-2.3-.7v-2.6c.7.5 1.3.9 2.2.9 1.1 0 1.8-.7 1.8-1.8 0-2.5-4.4-2.7-4.4-6.6 0-2.2 1.5-3.9 3.8-3.9.9 0 1.6.2 2.4.6v2.7zM226.5 42.3c0-1 .8-1.7 1.8-1.7.9 0 1.7.8 1.7 1.7 0 1-.8 1.8-1.7 1.8-1 0-1.8-.8-1.8-1.8zm3 18.4h-2.6V46.6h2.6v14.1zM237.3 49.5c-.5-.4-1.3-.8-2-.8-1 0-1.8.6-1.8 1.5.1 2.4 4.4 2.5 4.4 6.5 0 2.5-1.5 4.2-4.1 4.2-.9 0-1.5-.2-2.3-.7v-2.6c.7.5 1.3.9 2.2.9 1.1 0 1.8-.7 1.8-1.8 0-2.5-4.4-2.7-4.4-6.6 0-2.2 1.5-3.9 3.8-3.9.9 0 1.6.2 2.4.6v2.7zM252.4 42.9c-.7-.5-1.4-.9-2.4-.9-1.5 0-2.5 1.3-2.5 2.7 0 .9.2 1.6.8 2.3l2.1 2.3c1.9 1.9 3 3.3 3 6.2 0 3-1.8 5.5-5 5.5-1.1 0-2.2-.3-3.1-1v-2.8c.8.6 1.7 1.1 2.8 1.1 1.7 0 2.5-1.4 2.5-2.9 0-4.2-5.9-5-5.9-10.6 0-3 1.6-5.4 4.7-5.4 1.1 0 2.1.2 3 .7v2.8zM254.9 53.7c0-3.1.4-7.3 4.5-7.3 4 0 4.5 4.3 4.5 7.3s-.4 7.3-4.5 7.3-4.5-4.3-4.5-7.3zm6.2 0c0-1.1.3-4.9-1.8-4.9-2 0-1.8 3.8-1.8 4.9 0 1-.3 4.8 1.8 4.8 2.1.1 1.8-3.8 1.8-4.8zM271.7 49.5c-.3-.4-.7-.6-1.3-.7-2.3 0-2.3 3.2-2.3 4.7 0 1.4.1 5 2.3 5 .6 0 .9-.2 1.3-.5v2.4c-.7.4-1.3.6-2.1.6-3.7 0-4.2-4.4-4.2-7.2 0-2.9.3-7.4 4.2-7.4.8 0 1.4.1 2.1.5v2.6zM273.2 42.3c0-1 .8-1.7 1.8-1.7.9 0 1.7.8 1.7 1.7 0 1-.8 1.8-1.7 1.8-1 0-1.8-.8-1.8-1.8zm3 18.4h-2.6V46.6h2.6v14.1zM280.9 54.2c0 1.2-.1 4.4 1.7 4.4 1.4 0 1.7-1.5 1.7-2.6h2.4c0 2.6-1.1 5-4.1 5-3.9 0-4.3-4.2-4.3-7.2 0-2.9.3-7.4 4.2-7.4 3.8 0 4.3 4.5 4.3 7.4v.4h-5.9zm3.2-1.9c0-1.1 0-3.6-1.6-3.6-1.7 0-1.5 2.5-1.5 3.6h3.1zM291.9 42.6v4h1.4v2.1h-1.4v12.1h-2.6V48.7h-1.4v-2.1h1.4v-4h2.6zM296.8 46.6l2.1 9.9h.1l2.4-9.9h2.7l-5.8 19.9h-2.8l2.2-6.9-3.8-13h2.9z"/><g><g class="st0"><path class="st1" d="M33.1 0L64 38 30.9 73.5 0 35.5z"/><g class="st0"><defs><path id="SVGID_1_" class="st0" d="M33.1 0L64 38 30.9 73.5 0 35.5z"/></defs><clipPath id="SVGID_2_"><use xlink:href="#SVGID_1_" overflow="visible"/></clipPath><g class="st2"><path class="st3" d="M9.6 34.5l4.3 7.3 1.7-1.9-1.8-1.5-4.2-3.9m30.7 12.1l-1-2.7 2.3 1.3.9-2.7.8 2.8 2.3-1.2-1.2 2.6 2.4 1.1-2.4.9 1 2.7-2.3-1.4-.9 2.7-.8-2.7-2.4 1.1 1.2-2.6-2.4-1.1 2.5-.8m-25.5 1.1L7 32.7l1.1-1.2 12.5 10-1.4 1.5-2.4-2-2.2 2.3 1.6 2.9-1.4 1.5m7.4-14.4l-.3-.6-2-3.5-3.5-6.5 1.3-1.4 11.2 11.4-1.4 1.5-4.1-4.4-2-2.2-1.4-1.5 1.2 2.1 4.4 8-1 1.1-8.4-7.1 6.6 9.1-1.4 1.5-9.3-13.5 1.2-1.3 8.9 7.3m8.2-8.8l-.3-.6-2-3.5-3.5-6.5 1.3-1.4L37 23.9l-1.4 1.5-4.1-4.4-2-2.2-1.4-1.6 1.2 2.1 4.4 8-1 1.1-8.4-7.1 6.6 9.1-1.4 1.5-9.3-13.5 1.2-1.3 9 7.4m7.8-4.6c.9-1 .6-2.2-.1-3.1-2-2.5-5.5.3-8.2-3-1.4-1.8-1.8-4.1-.2-5.8.5-.6 1.2-1 1.9-1.2l1.3 1.7c-.6.1-1.2.3-1.7.8-.8.9-.7 2.1 0 3 .4.5.9.8 1.5.9l2.2.2c1.9.1 3.2.3 4.5 2 1.4 1.8 1.7 4.3.1 6-.6.6-1.3 1-2.1 1.1L36 20.8c1-.1 1.6-.3 2.2-.9M33.1 0L0 35.5l30.9 38L64 38 33.1 0"/><path class="st4" d="M39.3 43.9l1 2.7-2.5.9 2.4 1-1.2 2.6 2.4-1.1.8 2.8.9-2.8 2.3 1.4-1.1-2.7 2.5-.9-2.4-1.1 1.2-2.6-2.4 1.2-.7-2.8-1 2.7-2.2-1.3M13.8 41.8l-4.3-7.3 4.2 4 1.8 1.5-1.7 1.8M8.2 31.4L7 32.7l7.8 15 1.4-1.5-1.6-2.9 2.2-2.3 2.4 2 1.5-1.6-12.5-10M17.6 21.3l-1.3 1.4 3.6 6.5 2 3.5.3.5v.1l-8.9-7.4-1.2 1.3 9.3 13.5 1.3-1.5-6.6-9 .1-.1 8.4 7.1 1-1-4.4-8.1-1.3-2h.1l1.3 1.6 2 2.2 4.1 4.4 1.4-1.5-11.2-11.5M25.8 12.5l-1.3 1.4 3.6 6.5 2 3.5.4.5-.1.1-8.9-7.4-1.2 1.3 9.3 13.5 1.4-1.5-6.6-9.1 8.4 7.1 1-1-4.4-8.1-1.2-2v-.1l1.4 1.6 1.9 2.3 4.1 4.4 1.4-1.6-11.2-11.4M29.7 8c-1.6 1.8-1.3 4.1.2 5.8 2.7 3.3 6.1.5 8.2 3 .8.9 1 2.1.1 3.1-.6.6-1.2.8-2 .9l1.4 1.7c.8-.1 1.5-.5 2.1-1.1 1.6-1.7 1.3-4.3-.1-6-1.4-1.7-2.6-1.9-4.5-2l-2.2-.2c-.6-.1-1.1-.4-1.5-.9-.7-.9-.8-2.1 0-3 .5-.5 1-.7 1.7-.8l-1.3-1.7c-.9.2-1.5.6-2.1 1.2"/></g></g><path class="st5" d="M33.1 0h32.7l31 38H64z"/><g class="st0"><defs><path id="SVGID_3_" class="st0" d="M33.1 0h32.7l31 38H64z"/></defs><clipPath id="SVGID_4_"><use xlink:href="#SVGID_3_" overflow="visible"/></clipPath><g class="st6"><path class="st4" d="M80 27.4l-1.1.2-1.3-1.4.2 1.2-1.8-1 1.4 1.4-1.3.1 1.8.9v1.1l1.1-.2 1.3 1.5-.2-1.2 1.8 1-1.4-1.5 1.3-.1-1.8-.9v-1.1M58.8 16.7l-1.5.3-1.7-1.9.2 1.6-2.4-1.4 1.9 2-1.7.1 2.4 1.2v1.5l1.5-.3 1.8 1.9-.3-1.6 2.4 1.4-1.9-2 1.7-.1-2.4-1.2v-1.5"/></g></g><g><path class="st7" d="M64 38h32.8L63.7 73.5H30.9z"/><g class="st0"><defs><path id="SVGID_5_" class="st0" d="M64 38h32.8L63.7 73.5H30.9z"/></defs><clipPath id="SVGID_6_"><use xlink:href="#SVGID_5_" overflow="visible"/></clipPath><g class="st8"><path class="st4" d="M65.6 43l-2.3 1.9-.4-1-1.3 1.9-1.9.6.6.8-2.4 1.9 2.1-.8-1.5 2 2.4-2 .4 1 1.2-1.9 2-.6-.6-.8 2.4-1.8-2.1.8 1.4-2M80.1 42.9l-3.2 2.6-.5-1.4-1.7 2.6-2.6.8.8 1-3.2 2.5 2.8-1.1-1.9 2.7 3.2-2.6.5 1.4 1.6-2.6 2.7-.8-.9-1.1 3.2-2.4-2.8 1.1 2-2.7"/></g></g></g></g></g></svg>